Coordinates
version=1
nRows=9
nColumns=63
inDegrees=yes

Units are S.I. units (second, meters, Newtons, ...)
If the header above contains a line with 'inDegrees', this indicates whether rotational values are in degrees (yes) or radians (no).

endheader
time	pelvis_tilt	pelvis_list	pelvis_rotation	pelvis_tx	pelvis_ty	pelvis_tz	hip_flexion_r	hip_adduction_r	hip_rotation_r	knee_angle_r	knee_angle_r_beta	ankle_angle_r	subtalar_angle_r	mtp_angle_r	hip_flexion_l	hip_adduction_l	hip_rotation_l	knee_angle_l	knee_angle_l_beta	ankle_angle_l	subtalar_angle_l	mtp_angle_l	L5_S1_Flex_Ext	L5_S1_Lat_Bending	L5_S1_axial_rotation	L4_L5_Flex_Ext	L4_L5_Lat_Bending	L4_L5_axial_rotation	L3_L4_Flex_Ext	L3_L4_Lat_Bending	L3_L4_axial_rotation	L2_L3_Flex_Ext	L2_L3_Lat_Bending	L2_L3_axial_rotation	L1_L2_Flex_Ext	L1_L2_Lat_Bending	L1_L2_axial_rotation	L1_T12_Flex_Ext	L1_T12_Lat_Bending	L1_T12_axial_rotation	Abs_r3	Abs_r2	Abs_r1	Abs_t1	Abs_t2	neck_flexion	neck_bending	neck_rotation	arm_flex_r	arm_add_r	arm_rot_r	elbow_flex_r	pro_sup_r	wrist_flex_r	wrist_dev_r	arm_flex_l	arm_add_l	arm_rot_l	elbow_flex_l	pro_sup_l	wrist_flex_l	wrist_dev_l
6.813559	4.343522	-0.459313	84.646573	0.279782	1.047727	0.229077	-0.970196	3.042965	-11.998371	11.234675	0.196082	19.198383	17.616922	0.000000	-3.836002	-3.299296	-11.669932	8.103732	0.141437	24.024077	-1.771104	0.000000	-0.137528	0.605384	0.334238	-0.255403	0.805161	0.355128	-0.225945	1.471931	0.355128	-0.157181	1.471931	0.292459	-0.127708	1.234500	0.271569	-0.078583	0.937740	0.250679	-0.982348	6.848228	1.858934	0.000000	0.000000	23.165344	1.589205	32.404024	-7.865036	-19.486170	33.690977	26.212076	54.904576	-7.157260	-8.004461	61.089682	-1.172338	14.275720	138.547751	89.153492	-12.292718	27.857503
6.830508	4.323251	-0.512598	84.514726	0.279949	1.047645	0.229167	-0.925679	3.026107	-11.850780	11.209859	0.195649	19.211233	17.634197	0.000000	-3.790190	-3.265414	-11.524032	8.157398	0.142373	23.916188	-2.212385	0.000000	-0.132438	0.604875	0.319366	-0.245951	0.804484	0.339327	-0.217583	1.470694	0.339327	-0.151364	1.470694	0.279445	-0.122982	1.233462	0.259485	-0.075675	0.936952	0.239525	-0.945993	6.842470	1.776219	0.000000	0.000000	23.267354	1.742973	32.666907	-7.860669	-19.483833	33.451565	26.353223	55.845477	-7.274408	-8.014217	61.219875	-1.365946	14.152582	138.679996	89.138335	-12.123253	27.994287
6.847458	4.294346	-0.573005	84.361976	0.280154	1.047569	0.229245	-0.873456	3.001066	-11.668988	11.183972	0.195197	19.224206	17.642546	0.000000	-3.725832	-3.227044	-11.463424	8.237239	0.143767	23.844440	-2.582719	0.000000	-0.127109	0.602869	0.308021	-0.236054	0.801816	0.327272	-0.208828	1.465816	0.327272	-0.145273	1.465816	0.269518	-0.118034	1.229371	0.250267	-0.072630	0.933845	0.231016	-0.907928	6.819778	1.713120	0.000000	0.000000	23.369638	1.949500	32.949697	-7.892645	-19.478865	33.049261	26.562089	56.794616	-7.378195	-7.919046	61.366248	-1.547410	14.020261	138.831862	89.126556	-11.795679	28.177570
6.864407	4.261083	-0.637992	84.204727	0.280393	1.047503	0.229311	-0.814984	2.972895	-11.477431	11.162184	0.194817	19.241519	17.646716	0.000000	-3.649445	-3.190880	-11.497322	8.333945	0.145455	23.805545	-2.848744	0.000000	-0.122440	0.600107	0.301813	-0.227384	0.798143	0.320677	-0.201157	1.459101	0.320677	-0.139937	1.459101	0.264087	-0.113698	1.223739	0.245223	-0.069962	0.929566	0.226360	-0.874579	6.788532	1.678595	0.000000	0.000000	23.460011	2.176271	33.267504	-7.959488	-19.466724	32.495126	26.818347	57.784125	-7.503099	-7.727406	61.542827	-1.708626	13.899319	139.009124	89.119053	-11.379400	28.453794
6.881356	4.215018	-0.709888	84.029260	0.280700	1.047431	0.229335	-0.756695	2.935360	-11.253818	11.125130	0.194170	19.254467	17.642752	0.000000	-3.559432	-3.148776	-11.632847	8.455731	0.147580	23.800315	-3.016974	0.000000	-0.117363	0.595151	0.311639	-0.217954	0.791551	0.331116	-0.192815	1.447050	0.331116	-0.134134	1.447050	0.272684	-0.108983	1.213632	0.253206	-0.067061	0.921889	0.233729	-0.838309	6.732465	1.733241	0.000000	0.000000	23.564663	2.379217	33.503309	-8.067139	-19.439607	31.814506	27.080653	58.731104	-7.572446	-7.486763	61.732835	-1.788334	13.787863	139.170359	89.113749	-10.794516	28.779516
6.898305	4.160397	-0.787220	83.865585	0.281052	1.047358	0.229309	-0.699139	2.894004	-11.022474	11.079882	0.193380	19.266747	17.629416	0.000000	-3.456008	-3.102266	-11.766486	8.596179	0.150032	23.793036	-3.202430	0.000000	-0.111746	0.588471	0.332710	-0.207523	0.782666	0.353505	-0.183587	1.430807	0.353505	-0.127714	1.430807	0.291121	-0.103767	1.200009	0.270327	-0.063852	0.911541	0.249533	-0.798189	6.656896	1.850435	0.000000	0.000000	23.681054	2.554433	33.666516	-8.185272	-19.406942	31.103101	27.333466	59.578034	-7.600664	-7.181678	61.925276	-1.792210	13.666391	139.300673	89.110490	-9.977357	29.157511
6.915254	4.097763	-0.869907	83.702042	0.281469	1.047276	0.229236	-0.637068	2.848044	-10.781046	11.037711	0.192644	19.286610	17.608830	0.000000	-3.346002	-3.050309	-11.889667	8.743157	0.152597	23.768132	-3.427793	0.000000	-0.105419	0.580373	0.369364	-0.195774	0.771896	0.392450	-0.173193	1.411118	0.392450	-0.120484	1.411118	0.323194	-0.097892	1.183496	0.300109	-0.060237	0.898997	0.277023	-0.752998	6.565293	2.054294	0.000000	0.000000	23.822441	2.688810	33.764608	-8.312767	-19.362973	30.334499	27.575521	60.365058	-7.596333	-6.823742	62.113162	-1.726880	13.556480	139.378757	89.108983	-9.013572	29.565583
6.932203	4.026529	-0.949702	83.587260	0.281884	1.047195	0.229097	-0.590356	2.799655	-10.569595	10.979628	0.191631	19.308122	17.576391	0.000000	-3.228005	-2.992528	-11.918461	8.903645	0.155398	23.698889	-3.740364	0.000000	-0.097913	0.570477	0.411843	-0.181835	0.758734	0.437583	-0.160862	1.387057	0.437583	-0.111905	1.387057	0.360363	-0.090922	1.163316	0.334623	-0.055948	0.883669	0.308882	-0.699386	6.453348	2.290548	0.000000	0.000000	23.956513	2.780229	33.785442	-8.416556	-19.317867	29.633809	27.770502	61.044669	-7.551660	-6.476187	62.274943	-1.598473	13.468747	139.384644	89.107389	-7.973325	29.956025
6.949153	3.950584	-1.022322	83.503369	0.282313	1.047126	0.228891	-0.562607	2.751497	-10.377381	10.906704	0.190358	19.324885	17.530478	0.000000	-3.113762	-2.933235	-11.902629	9.067994	0.158266	23.591424	-4.087470	0.000000	-0.089105	0.559394	0.458642	-0.165477	0.743994	0.487307	-0.146391	1.360111	0.487307	-0.101838	1.360111	0.401312	-0.082743	1.140717	0.372647	-0.050915	0.866502	0.343982	-0.636469	6.327979	2.550830	0.000000	0.000000	24.060205	2.837663	33.763600	-8.456400	-19.298846	29.231820	27.898757	61.353544	-7.475598	-6.266389	62.396614	-1.428775	13.387069	139.312735	89.103800	-6.841100	30.269944
